<svg width="360" height="90" viewBox="0 0 360 90" fill="none" xmlns="http://www.w3.org/2000/svg">
<path fill-rule="evenodd" clip-rule="evenodd" d="M303.252 89.997H305.127V81.318H305.16L308.277 89.997H309.9L313.017 81.318H313.05V89.997H314.925V78.75H312.183L309.159 87.555H309.126L306.024 78.75H303.252V89.997ZM292.875 80.451H296.433V89.997H298.401V80.451H301.977V78.75H292.875V80.451ZM269.992 89.997L359.989 0H305.823L215.829 89.997H269.995H269.992ZM257.089 39.194H148.142C114.939 39.194 109.128 40.955 94.906 55.177C81.604 68.476 59.999 90 59.999 90H107.193L118.452 78.738C125.856 71.337 129.672 70.569 145.214 70.569H225.713L257.086 39.193H257.089V39.194ZM93.453 48.758C83.631 58.028 62.257 78.787 50.737 89.998H0C0 89.998 40.655 49.46 63.253 27.216C86.535 5.056 98.139 0.00100708 140.842 0.00100708H296.285L262.629 33.657H144.001C113.996 33.657 107.255 35.736 93.456 48.758H93.453Z" fill="white"/>
</svg>
